<svg width="84" height="25" viewBox="0 0 84 25" fill="none" xmlns="http://www.w3.org/2000/svg">
<path d="M16.0522 10.4908C18.6587 14.3332 20.1809 18.9711 20.1809 23.9648V24.0982H14.8242C14.8255 24.0542 14.8253 24.0088 14.8253 23.9648C14.8253 21.4866 14.342 19.1188 13.465 16.9553L10.6087 24.0982H5.18425C5.18558 24.0542 5.18647 24.0088 5.18647 23.9648C5.18647 16.904 3.29877 10.2831 0 4.58252L4.63702 1.9053C6.75978 5.57344 8.36821 9.57538 9.36635 13.8132L14.8932 0H20.2476L16.0522 10.4908Z" fill="#00FA64"/>
<path d="M79.0333 24.0982V8.02821H83.3722V24.0982H79.0333ZM81.2028 6.18017C80.435 6.18017 79.8547 5.98376 79.4619 5.59094C79.069 5.18026 78.8726 4.65352 78.8726 4.01072C78.8726 3.36792 79.069 2.85011 79.4619 2.45729C79.8547 2.04662 80.435 1.84128 81.2028 1.84128C81.9706 1.84128 82.5509 2.04662 82.9437 2.45729C83.3365 2.85011 83.5329 3.36792 83.5329 4.01072C83.5329 4.65352 83.3365 5.18026 82.9437 5.59094C82.5509 5.98376 81.9706 6.18017 81.2028 6.18017Z" fill="#00FA64"/>
<path d="M66.0102 24.4195C64.5103 24.4195 63.2783 24.0624 62.3141 23.3482C61.3499 22.6161 60.6356 21.6162 60.1714 20.3485C59.7072 19.0807 59.475 17.6434 59.475 16.0364C59.475 14.3758 59.7072 12.9206 60.1714 11.6707C60.6535 10.4208 61.3767 9.4477 62.3409 8.75133C63.305 8.05497 64.5192 7.70679 65.9834 7.70679C67.1083 7.70679 68.0278 7.92998 68.7421 8.37637C69.4741 8.8049 70.0276 9.38521 70.4026 10.1173H71.0454V8.02819H75.0629V24.0981H71.0454V22.0091H70.4026C70.0276 22.6876 69.4831 23.2589 68.7688 23.7232C68.0546 24.1874 67.1351 24.4195 66.0102 24.4195ZM67.1351 21.3663C68.2242 21.3663 69.0902 20.8931 69.733 19.9467C70.3937 18.9825 70.724 17.688 70.724 16.0632C70.724 14.4205 70.3937 13.1259 69.733 12.1796C69.0902 11.2333 68.2242 10.7601 67.1351 10.7601C66.153 10.7601 65.3763 11.2065 64.8049 12.0992C64.2514 12.9742 63.9746 14.2955 63.9746 16.0632C63.9746 17.8309 64.2514 19.1611 64.8049 20.0539C65.3763 20.9288 66.153 21.3663 67.1351 21.3663Z" fill="#00FA64"/>
<path d="M42.3421 24.0982V8.02828H46.3596V10.4388H47.0024C47.3238 9.63527 47.8148 8.96569 48.4755 8.43002C49.154 7.89436 50.145 7.62653 51.4484 7.62653C53.234 7.62653 54.5731 8.18897 55.4659 9.31387C56.3587 10.4388 56.8051 11.9654 56.8051 13.8938V24.0982H52.4662V14.617C52.4662 13.5099 52.2698 12.6618 51.8769 12.0725C51.4841 11.4655 50.8413 11.1619 49.9486 11.1619C48.9129 11.1619 48.1094 11.5726 47.5381 12.3939C46.9667 13.1974 46.681 14.2063 46.681 15.4205V24.0982H42.3421Z" fill="#00FA64"/>
<path d="M29.3338 24.5C27.5483 24.5 26.2002 23.9376 25.2895 22.8127C24.3789 21.6878 23.9236 20.1611 23.9236 18.2327V8.02829H28.2625V17.5096C28.2625 18.5988 28.4589 19.4469 28.8517 20.054C29.2445 20.6611 29.8784 20.9646 30.7533 20.9646C31.8068 20.9646 32.6192 20.5539 33.1906 19.7326C33.762 18.9112 34.0477 17.9024 34.0477 16.7061V8.02829H38.3865V24.0983H34.4762V21.6878H33.8334C33.5656 22.4913 33.0745 23.1608 32.3603 23.6965C31.6461 24.2322 30.6373 24.5 29.3338 24.5Z" fill="#00FA64"/>
</svg>
